<svg width="18" height="17" viewBox="0 0 18 17" fill="none" xmlns="http://www.w3.org/2000/svg">
<path d="M17.4609 8.5C17.4609 9.04688 17.0312 9.47656 16.5234 9.47656H3.24219L8.4375 14.3984C8.82812 14.75 8.82812 15.375 8.47656 15.7266C8.125 16.1172 7.53906 16.1172 7.14844 15.7656L0.273438 9.20312C0.078125 9.00781 0 8.77344 0 8.5C0 8.26562 0.078125 8.03125 0.273438 7.83594L7.14844 1.27344C7.53906 0.921875 8.125 0.921875 8.47656 1.3125C8.82812 1.66406 8.82812 2.28906 8.4375 2.64062L3.24219 7.5625H16.5234C17.0703 7.5625 17.4609 7.99219 17.4609 8.5Z" fill="#1E1E1E"/>
</svg>
